# Blender v2.90.0 OBJ File: 'untitled.blend1'
# www.blender.org
mtllib ground.mtl
o Cube
v 49.871975 -1.000016 -50.127697
v 49.871975 0.999984 -50.127697
v 50.127697 1.000016 49.871975
v 50.127697 -0.999984 49.871975
v -49.871975 1.000016 50.127697
v -49.871975 -0.999984 50.127697
v -50.127697 0.999984 -49.871975
v -50.127697 -1.000016 -49.871975
v 49.847729 -1.000018 -59.610569
v 49.847729 0.999982 -59.610569
v -50.151943 0.999982 -59.354847
v -50.151943 -1.000018 -59.354847
v 49.871975 27.813726 -50.127701
v -50.127697 27.813726 -49.871983
v 49.847729 27.813725 -59.610573
v -50.151943 27.813725 -59.354855
v -62.825516 1.000016 50.160820
v -62.825516 -0.999984 50.160820
v -63.081238 -1.000016 -49.838852
v -63.081238 0.999984 -49.838852
v -49.871975 27.540949 50.127686
v -50.127697 27.540918 -49.871986
v -62.825516 27.540949 50.160812
v -63.081238 27.540918 -49.838860
v 50.174816 1.000019 68.299332
v 50.174816 -0.999981 68.299332
v -49.824856 -0.999981 68.555054
v -49.824856 1.000019 68.555054
v 50.127697 27.871288 49.871971
v -49.871975 27.871288 50.127689
v 50.174816 27.871292 68.299332
v -49.824856 27.871292 68.555046
v -28.073303 11.559007 -3.084972
v -28.073303 17.938931 -3.084972
v -28.056990 11.559006 3.294930
v -28.056990 17.938927 3.294930
v -34.453201 11.559007 -3.068657
v -34.453201 17.938931 -3.068657
v -34.436886 11.559006 3.311244
v -34.436886 17.938927 3.311244
v -28.056990 9.720637 3.294929
v -31.059450 6.725826 0.307784
v -31.060448 6.725826 -0.082512
v -28.073303 9.720639 -3.084972
v -34.436886 9.720637 3.311244
v -31.449745 6.725826 0.308782
v -34.453201 9.720639 -3.068657
v -31.450743 6.725826 -0.081514
v -28.073303 21.806604 -3.084970
v -30.538164 24.277790 -0.607470
v -30.534489 24.277790 0.830072
v -28.056990 21.806601 3.294931
v -31.972029 24.277790 0.833749
v -34.436886 21.806601 3.311246
v -31.975704 24.277790 -0.603794
v -34.453201 21.806604 -3.068655
vt 0.375000 0.000000
vt 0.625000 0.000000
vt 0.625000 0.250000
vt 0.375000 0.250000
vt 0.625000 0.500000
vt 0.375000 0.500000
vt 0.625000 0.750000
vt 0.375000 0.750000
vt 0.625000 1.000000
vt 0.375000 1.000000
vt 0.375000 0.750000
vt 0.375000 0.500000
vt 0.625000 0.750000
vt 0.625000 1.000000
vt 0.721835 0.596835
vt 0.778165 0.596835
vt 0.778165 0.653165
vt 0.721835 0.653165
vt 0.625000 0.250000
vt 0.625000 0.500000
vt 0.375000 0.250000
vt 0.375000 1.000000
vt 0.242353 0.617353
vt 0.257647 0.617353
vt 0.257647 0.632647
vt 0.242353 0.632647
vt 0.125000 0.750000
vt 0.125000 0.500000
vt 0.375000 0.000000
vt 0.875000 0.500000
vt 0.875000 0.750000
vt 0.625000 0.000000
vt 0.375000 0.000000
vt 0.625000 0.000000
vt 0.625000 0.250000
vt 0.375000 0.250000
vt 0.625000 0.500000
vt 0.375000 0.500000
vt 0.375000 0.500000
vt 0.625000 0.500000
vt 0.625000 0.750000
vt 0.625000 0.750000
vt 0.625000 0.750000
vt 0.625000 0.750000
vt 0.375000 0.000000
vt 0.625000 0.000000
vt 0.125000 0.500000
vt 0.375000 0.750000
vt 0.125000 0.750000
vt 0.875000 0.500000
vt 0.875000 0.750000
vt 0.375000 0.750000
vt 0.625000 0.750000
vt 0.625000 1.000000
vt 0.375000 1.000000
vt 0.125000 0.750000
vt 0.625000 0.750000
vt 0.625000 0.750000
vt 0.875000 0.750000
vt 0.875000 0.750000
vt 0.625000 0.000000
vt 0.625000 0.000000
vt 0.625000 1.000000
vt 0.375000 0.500000
vt 0.625000 0.500000
vt 0.375000 0.750000
vt 0.625000 0.500000
vt 0.625000 0.500000
vt 0.375000 0.250000
vt 0.625000 0.250000
vt 0.125000 0.500000
vt 0.625000 0.250000
vt 0.625000 0.500000
vt 0.875000 0.500000
vt 0.625000 0.500000
vt 0.875000 0.500000
vt 0.625000 0.250000
vn 1.0000 0.0000 -0.0026
vn 0.0026 -0.0000 1.0000
vn -1.0000 -0.0000 0.0026
vn -0.0026 -0.0000 -1.0000
vn 0.0000 1.0000 0.0000
vn 0.0000 -1.0000 0.0000
vn 0.7071 -0.7071 -0.0018
vn 0.0018 -0.7071 0.7071
vn -0.7071 -0.7071 0.0018
vn -0.0018 -0.7071 -0.7071
vn 0.7071 0.7071 -0.0018
vn 0.0018 0.7071 0.7071
vn -0.7071 0.7071 0.0018
vn -0.0018 0.7071 -0.7071
vn -0.8956 -0.0000 -0.4449
vn -0.8933 0.0000 0.4495
vn 0.4449 -0.0000 -0.8956
vn -0.4495 -0.0000 -0.8933
vn -0.5788 0.5774 -0.5759
vn 0.5759 0.5774 -0.5788
vn 0.8956 0.0000 0.4449
vn 0.8933 -0.0000 -0.4495
vn -0.5759 0.5774 0.5788
vn 0.5788 0.5774 0.5759
vn 0.4495 0.0000 0.8933
vn -0.4449 0.0000 0.8956
usemtl ground
s off
f 33/1/1 34/2/1 36/3/1 35/4/1
f 35/4/2 36/3/2 40/5/2 39/6/2
f 39/6/3 40/5/3 38/7/3 37/8/3
f 37/8/4 38/7/4 34/9/4 33/10/4
f 39/6/3 37/8/3 47/11/3 45/12/3
f 34/9/4 38/7/4 56/13/4 49/14/4
f 53/15/5 51/16/5 50/17/5 55/18/5
f 40/5/2 36/3/2 52/19/2 54/20/2
f 38/7/3 40/5/3 54/20/3 56/13/3
f 35/4/2 39/6/2 45/12/2 41/21/2
f 37/8/4 33/10/4 44/22/4 47/11/4
f 42/23/6 46/24/6 48/25/6 43/26/6
f 42/23/7 43/26/7 44/27/7 41/28/7
f 46/24/8 42/23/8 41/28/8 45/12/8
f 48/25/9 46/24/9 45/12/9 47/11/9
f 43/26/10 48/25/10 47/11/10 44/27/10
f 33/1/1 35/4/1 41/21/1 44/29/1
f 50/17/11 51/16/11 52/30/11 49/31/11
f 51/16/12 53/15/12 54/20/12 52/30/12
f 53/15/13 55/18/13 56/13/13 54/20/13
f 55/18/14 50/17/14 49/31/14 56/13/14
f 36/3/1 34/2/1 49/32/1 52/19/1
s 1
f 1/33/1 2/34/1 3/35/1 4/36/1
f 5/37/15 6/38/9 27/39/9 28/40/16
f 7/41/17 20/42/18 24/43/19 22/44/20
f 2/34/21 1/33/7 9/45/7 10/46/22
f 4/47/6 6/38/6 8/48/6 1/49/6
f 5/37/5 3/50/5 2/51/5 7/41/5
f 12/52/4 11/53/4 10/54/4 9/55/4
f 1/49/7 8/48/9 12/52/9 9/56/7
f 11/53/15 7/41/16 14/57/23 16/58/19
f 8/48/9 7/41/16 11/53/15 12/52/9
f 14/57/23 13/59/24 15/60/20 16/58/19
f 2/34/21 10/46/22 15/61/20 13/62/24
f 10/54/22 11/53/15 16/58/19 15/63/20
f 7/41/16 2/51/21 13/59/24 14/57/23
f 18/64/3 17/65/3 20/42/3 19/66/3
f 6/38/8 5/37/25 17/65/26 18/64/8
f 7/41/17 8/48/10 19/66/10 20/42/18
f 8/48/10 6/38/8 18/64/8 19/66/10
f 21/67/24 22/44/20 24/43/19 23/68/23
f 5/37/25 7/41/17 22/44/20 21/67/24
f 20/42/18 17/65/26 23/68/23 24/43/19
f 17/65/26 5/37/25 21/67/24 23/68/23
f 26/69/2 25/70/2 28/40/2 27/39/2
f 6/38/9 4/47/7 26/71/7 27/39/9
f 28/40/16 25/70/21 31/72/24 32/73/23
f 4/36/7 3/35/22 25/70/21 26/69/7
f 29/74/20 30/75/19 32/73/23 31/76/24
f 25/70/21 3/35/22 29/77/20 31/72/24
f 3/50/22 5/37/15 30/75/19 29/74/20
f 5/37/15 28/40/16 32/73/23 30/75/19
